<svg xmlns="http://www.w3.org/2000/svg" width="24" height="25" fill="none"
     viewBox="0 0 24 25" role="img">
  <rect width="24" height="24" y="0.5" fill="#fff" rx="3"></rect>
  <g clip-path="url(#auth-icon_svg__ikclip0_2340_2323)">
    <path stroke="#6370EB" stroke-width="2"
          d="M17.03 16.816a9.1 9.1 0 0 1-4.954 3.18l-.04-.006-.038.005A9.086 9.086 0 0 1 5 11.204v-4.87A.333.333 0 0 1 5.333 6h13.334a.333.333 0 0 1 .333.333v4.803a9.1 9.1 0 0 1-1.97 5.68Z"></path>
    <path fill="#0E2666"
          d="M13.981 10.7a1.99 1.99 0 0 0-3.981 0 1.96 1.96 0 0 0 .955 1.685l-.559 2.387a.71.71 0 0 0 .384.807.7.7 0 0 0 .313.072h1.795a.72.72 0 0 0 .7-.56.7.7 0 0 0-.003-.319l-.558-2.387a1.96 1.96 0 0 0 .954-1.685"></path>
  </g>
  <defs>
    <clipPath id="auth-icon_svg__ikclip0_2340_2323">
      <path fill="#fff" d="M4 5h16v16H4z"></path>
    </clipPath>
  </defs>
</svg>